PathFileType	4	(X/Y/Z)	10_2_82_p0_0-560_filt_butterworth.trc
DataRate	CameraRate	NumFrames	NumMarkers	Units	OrigDataRate	OrigDataStartFrame	OrigNumFrames
60.0	60.0	6	27	m	60.0	350	560
Frame#	Time	RHip			RKnee			RAnkle			RBigToe			RSmallToe			RHeel			LHip			LKnee			LAnkle			LBigToe			LSmallToe			LHeel			Neck			Head			Nose			RShoulder			RElbow			RWrist			RThumb			RIndex			RPinky			LShoulder			LElbow			LWrist			LThumb			LIndex			LPinky			
		X1	Y1	Z1	X2	Y2	Z2	X3	Y3	Z3	X4	Y4	Z4	X5	Y5	Z5	X6	Y6	Z6	X7	Y7	Z7	X8	Y8	Z8	X9	Y9	Z9	X10	Y10	Z10	X11	Y11	Z11	X12	Y12	Z12	X13	Y13	Z13	X14	Y14	Z14	X15	Y15	Z15	X16	Y16	Z16	X17	Y17	Z17	X18	Y18	Z18	X19	Y19	Z19	X20	Y20	Z20	X21	Y21	Z21	X22	Y22	Z22	X23	Y23	Z23	X24	Y24	Z24	X25	Y25	Z25	X26	Y26	Z26	X27	Y27	Z27	
350	5.833333333333333	0.30522869945162623	0.5417734664578681	0.9195643712578273	0.3060683129404404	0.6825446274398858	1.385715684785797	0.2982867299558627	0.8125447994080794	1.8058015390567068	0.2758088554175205	0.5922744976823536	1.840798995044647	0.3249944071766404	0.6444612474027763	1.847474571050783	0.26817212562737097	0.8923218578716828	1.864759247104088	0.07368868511859507	0.519835087118644	0.9268106019027923	0.08266444972500739	0.6475811559872929	1.3700159951373483	0.08385881543088283	0.778532169667562	1.807342100459631	0.12388108937423578	0.5998200826519118	1.8607954966923552	0.060131087479275265	0.6240065801806705	1.8444900404945088	0.08881034144462786	0.8750961767834073	1.8619544231051164	0.19866895956501301	0.41699609986764624	0.3395833196423686	0.2215871983108074	0.2795710359356033	0.11152910193082005	0.2266903710285795	0.2528838862007974	0.23730468366565405	0.37109906219393196	0.4620897366066139	0.4374898693344631	0.4033398229322731	0.5225877262604167	0.7117029506713992	0.41746588087517633	0.5460761478045256	0.9733336929585612	0.3637176239741594	0.4853329071245702	1.087030652511153	0.37668706489398346	0.5010593440272735	1.134342756964864	0.41997365241264084	0.596880329286549	1.1337358597342926	0.04166944377229933	0.41916067396051926	0.42408679503133623	-0.025482721321555206	0.4812928256555463	0.7186418741271321	-0.025313766380351328	0.49444618210742763	0.9754715863537897	0.028778215266873696	0.4599999189393228	1.0891923790973008	-0.0006122146566248114	0.47835449565511434	1.1115525732153868	-0.035940882920194706	0.5245173500447934	1.1147846495801765
351	5.85	0.3042630503529376	0.544454378717655	0.9194758465501087	0.30608824880697766	0.6827137393884715	1.3863668471128492	0.2984643425296626	0.8122739378097599	1.8051657138808304	0.2757396226242683	0.5923362937354196	1.8407532185165392	0.32487532575966765	0.6445603636132733	1.8473804178936928	0.26887657868735837	0.8930301782174596	1.8654669271602151	0.07399291764997151	0.5196413544723576	0.9252886789812951	0.08264685102303648	0.6476136606773539	1.3699975331040655	0.08380900961372045	0.7791990003541238	1.8072381841303207	0.12387553819467767	0.5997638181494951	1.860717751479388	0.06165459362433372	0.6234263717984069	1.844069610422022	0.0888336223899933	0.875347787365204	1.8603475316007996	0.1988357241321711	0.4169513961864051	0.33944970420679876	0.2215990022673185	0.27996145052512367	0.1136258129509119	0.2267028076580236	0.2528478860396104	0.2372767436347147	0.37099478230855576	0.4616078199993407	0.43658684673422615	0.4033407738359691	0.5226056467698341	0.7117195297781782	0.41747586225214894	0.5460155242654325	0.973269598253995	0.3638194369776203	0.48518327282642865	1.0859833317926029	0.37606641077900566	0.500755862034871	1.1342455327053824	0.41956112272553897	0.596339277455638	1.1308482389401826	0.04175368289979624	0.41896024633545725	0.42407989894808745	-0.025379728431619748	0.48117903949093593	0.7196217263214398	-0.02528775111215488	0.4945198971024008	0.9755653319783436	0.02876688355740259	0.4601935981147738	1.0893134768893387	-0.0026544187608442482	0.4832040529749073	1.1124655252775248	-0.03742104857812686	0.5278660502937267	1.1153927923349565
352	5.866666666666666	0.3034450546843539	0.5466188045496266	0.9189513616473568	0.30617686453954984	0.6828164653731041	1.3868185032099951	0.2987174965295084	0.8116702560337902	1.804550634118172	0.27569610155737345	0.5924073397155045	1.8407226742702996	0.32482889327952674	0.6446850242018245	1.8473353134063282	0.2694604765143439	0.8933151024789475	1.8655451894857178	0.0748886043830237	0.5194760475719502	0.9241565530785597	0.08264139666836602	0.647635460698041	1.3699560071097059	0.08380005791301105	0.7801910857122003	1.8068953633530016	0.12380707952818486	0.6005606219599944	1.860948953065977	0.0626970586708886	0.6244800780430105	1.8443673231934208	0.08895307508726201	0.8757285432125714	1.8595830052463613	0.19896272331530593	0.41692148502022214	0.3394153621582548	0.22160763011163745	0.2804857127761356	0.1152392181809458	0.2267139954024673	0.2528383235880718	0.23726066681934915	0.3708582734240839	0.46095208213434297	0.4354039562019671	0.4033408507593065	0.5226209819390863	0.7117259928048131	0.41753367583531503	0.5457864416100688	0.97320059203998	0.36387224767301335	0.4850394966845037	1.085538479198349	0.3753531594483775	0.5002485752798482	1.1341666922647722	0.41924410706318266	0.5959650251047683	1.1286809291234843	0.0418903975263333	0.4186526766363974	0.4240745372952349	-0.025254918196722813	0.4810478277223447	0.720855158489608	-0.025278093467738908	0.49457255886884943	0.9755583040510711	0.028763332440592024	0.46034091621631607	1.089475168573993	-0.00407949904066586	0.48654215060940853	1.113084798149185	-0.03935215625663422	0.5324048029436231	1.1162275402166904
353	5.883333333333334	0.3032796607307666	0.5467631188839169	0.9181648649450496	0.30623806980832863	0.6828462732321032	1.3870119341285665	0.29884590818688855	0.811339133571305	1.8042654119191521	0.27568991081364397	0.592437750605162	1.8407057629289323	0.3248638164952871	0.6447121970623467	1.8473410703743496	0.2695903860656977	0.8931667255282407	1.8655021421889433	0.07613838795182085	0.5193859406640768	0.9236922074058342	0.0826406945007985	0.6476396858101015	1.3699102198487911	0.08381924350503159	0.7810721407453781	1.8067546930086216	0.12379013680176028	0.6011056033750827	1.8611026711235654	0.06310256303850839	0.6253562976082975	1.844742150907455	0.08923796146634713	0.8760337088196403	1.859670108537113	0.19859510518020507	0.4168796809460009	0.33955497570176457	0.2216088408529145	0.2808769620985941	0.11590779261076029	0.2267222655256896	0.25291683675875853	0.23750444330265902	0.37075162384312327	0.4604349729888289	0.4345102137741606	0.4033391025023264	0.522629516364509	0.7117164295143575	0.41762867860397584	0.545438456411484	0.973143508302224	0.36387356819160055	0.4849594112906671	1.0854984364804274	0.37455132985703593	0.4996423252958032	1.1341213057171287	0.4191143557992313	0.5958343234995246	1.127847131522501	0.04188645084293162	0.41867640832354364	0.424058742948805	-0.02517035990864932	0.4810015637852946	0.7217867679166735	-0.025304968576517026	0.4943928701281494	0.9751170608609648	0.028757160172516633	0.4603862573123742	1.0895249478586952	-0.004614966681613468	0.487829725165399	1.1132972235006924	-0.04081700634346841	0.5358855769664198	1.1167863401932596
354	5.9	0.304231445790875	0.543679339332476	0.9175398679612553	0.30615225274527136	0.6829690434030656	1.3875446651631107	0.2988734760542533	0.8112584884570667	1.8041993467607287	0.2756972658769525	0.5924353680563359	1.8406959598719637	0.32491300498041986	0.6446492567773067	1.8473605688150638	0.26932447850605407	0.892964098514565	1.8658774824818656	0.0771204003683865	0.5193499387430928	0.9236204842367857	0.08263717737430631	0.6476226877445098	1.3698745435142599	0.08384534382370333	0.7814655787405452	1.8067983969622763	0.12383596310575702	0.6012321594208239	1.8611328048161304	0.06315015236108851	0.6255141860983517	1.8449426460822882	0.08937348906108235	0.8761240288738714	1.860161249413625	0.19708035028644785	0.41678460858701666	0.3398365678336969	0.22159972861753782	0.28100443218691384	0.11596531611005663	0.22672235696481596	0.2531147841547365	0.23816228415355897	0.37070378751906596	0.46021860935579045	0.43415854229642986	0.4033367129995641	0.5226316198228752	0.711695842795947	0.41762207185640926	0.5454546049614197	0.9731466333700902	0.36385361604088623	0.48494060585138576	1.0855831934086488	0.3738816940978216	0.49920085786850044	1.1340971484866977	0.4191199473564699	0.5958587552100227	1.1278721026374128	0.04131748081909872	0.4199669378165525	0.42397909949529183	-0.02514374486973989	0.48105622099754725	0.7221674997957865	-0.02535602000479206	0.4937508209299075	0.973981217711803	0.028702409597572094	0.46016902220406963	1.0891389786206516	-0.004587672877569091	0.4878412700994481	1.113246535990707	-0.0414354786547505	0.5370235706853084	1.1165950162668588
355	5.916666666666667	0.30573498284277767	0.5391274359722638	0.9172125721454016	0.3059260143929404	0.6832509168658198	1.3886656481531237	0.2988267249677333	0.8113246922642161	1.8043631271682665	0.27569598363533887	0.5924247147539561	1.840686989102664	0.3249219138288478	0.6445401447329779	1.8473607099943505	0.26895175420966144	0.8932367036117173	1.8668874451250494	0.07752117518871965	0.5193358016512533	0.9236176361850117	0.08263800038574808	0.6475764173948008	1.3698446556560226	0.08386163172377911	0.7814747681510565	1.8068760054709032	0.12389941413629646	0.6011126185187912	1.8611001680086523	0.06312634900657314	0.6252779979997402	1.845032887318717	0.08902932127291335	0.8760313214322413	1.8608039598579973	0.19442942849829087	0.41668311427414073	0.34007774309332217	0.22157902363429835	0.28093781226742043	0.11586743518748194	0.22672049270808226	0.2533562392268501	0.23913172414625886	0.3707062547784774	0.4602561113325181	0.43415261155473567	0.4033349982737952	0.522628697180064	0.7116716026785225	0.4171983716681891	0.5469231285286505	0.9733225069439146	0.36383830293541053	0.4849513286770454	1.0856565602102628	0.37356544503019834	0.4990294879291257	1.1340795013851044	0.4192019491631182	0.5959350302952062	1.12812567353809	0.03987453616708411	0.4231987100908597	0.4237908680103972	-0.025142468704635816	0.48112823418853434	0.7222033662273928	-0.02535872938582974	0.4927184958907707	0.9724194269474127	0.02854841343733992	0.45956727541945736	1.08806812090639	-0.004419229898763005	0.4875691347000521	1.1131662149793846	-0.04154819378192906	0.5363013246338748	1.1155645332540431
